 MESH "Malha" dimension 2 ElemType Quadrilateral Nnode 4
 Coordinates
           1      0.0000000          0.0000000    
           2      4.0000000          0.0000000    
           3      10.000000          0.0000000    
           4      30.000000          0.0000000    
           5      0.0000000         -4.0000000    
           6      4.0000000         -4.0000000    
           7      10.000000         -4.0000000    
           8      30.000000         -4.0000000    
           9      0.0000000         -10.000000    
          10      4.0000000         -10.000000    
          11      10.000000         -10.000000    
          12      30.000000         -10.000000    
 end coordinates
 Elements
         1         5         6         2         1         1
         2         6         7         3         2         1
         3         7         8         4         3         1
         4         9        10         6         5         2
         5        10        11         7         6         2
         6        11        12         8         7         2
 end elements
